<?xml version="1.0" standalone="no"?>
<!DOCTYPE svg PUBLIC "-//W3C//DTD SVG 20010904//EN"
 "http://www.w3.org/TR/2001/REC-SVG-20010904/DTD/svg10.dtd">
<svg version="1.0" xmlns="http://www.w3.org/2000/svg"
 width="546.000000pt" height="520.000000pt" viewBox="0 0 546.000000 520.000000"
 preserveAspectRatio="xMidYMid meet">
<metadata>
Created by potrace 1.16, written by Peter Selinger 2001-2019
</metadata>
<g transform="translate(0.000000,520.000000) scale(0.100000,-0.100000)"
fill="#000000" stroke="none">
<path d="M302 2598 l3 -2443 2425 0 2425 0 3 2443 2 2442 -2430 0 -2430 0 2
-2442z m2998 2156 c0 -164 -1 -176 -17 -169 -158 65 -479 152 -678 184 -283
46 -629 52 -873 16 -522 -76 -975 -302 -1262 -628 l-60 -68 0 421 0 420 1445
0 1445 0 0 -176z m1750 -714 c0 -490 -2 -890 -4 -890 -2 0 -38 51 -79 113
-328 496 -790 896 -1359 1175 l-197 97 -1 198 0 197 820 0 820 0 0 -890z
m-2515 632 c236 -37 462 -95 665 -172 l95 -35 3 -963 2 -962 -795 0 -795 0 0
1069 0 1069 93 10 c152 17 579 7 732 -16z m-935 -1077 l0 -1055 -595 0 -595 0
0 684 0 685 59 78 c222 293 566 517 966 628 66 19 130 34 143 34 l22 1 0
-1055z m1969 746 c616 -309 1115 -773 1424 -1327 l57 -102 0 -186 0 -186 -820
0 -820 0 0 935 c0 625 3 935 10 935 6 0 73 -31 149 -69z m-1239 -2706 c0 -704
-2 -795 -15 -795 -26 0 -216 79 -305 127 -604 326 -1142 830 -1488 1396 l-42
67 925 0 925 0 0 -795z m1490 143 c0 -358 -2 -649 -4 -647 -2 2 -18 39 -35 81
-110 276 -278 534 -490 752 -170 174 -315 286 -526 408 l-100 58 578 0 577 0
0 -652z m1230 94 l0 -559 -22 -20 c-13 -11 -67 -51 -120 -87 -260 -179 -534
-306 -847 -392 -69 -19 -126 -34 -128 -34 -2 0 -3 371 -3 825 l0 825 560 0
560 0 0 -558z m-2475 478 c350 -163 669 -439 889 -769 152 -227 266 -493 331
-769 7 -29 10 -54 6 -56 -8 -5 -134 -23 -256 -36 -147 -17 -520 -13 -683 5
-119 14 -351 55 -404 71 -17 5 -18 52 -18 809 0 762 1 804 18 798 9 -3 62 -27
117 -53z m-1910 -385 c121 -155 266 -315 404 -446 l126 -119 -392 0 -393 0 0
467 0 466 88 -134 c49 -74 124 -179 167 -234z m775 -756 c294 -221 568 -379
785 -454 44 -15 89 -31 100 -35 33 -14 274 -67 380 -84 349 -55 819 -51 1093
9 l22 5 0 -195 0 -195 -1705 0 -1705 0 0 515 0 515 453 2 c248 2 454 3 457 3
3 0 57 -39 120 -86z m3610 -494 l0 -455 -560 0 -560 0 0 205 0 205 28 6 c350
80 681 222 967 413 66 44 121 80 123 80 1 1 2 -204 2 -454z"/>
</g>
</svg>
