<?xml version="1.0" standalone="no"?>
<!DOCTYPE svg PUBLIC "-//W3C//DTD SVG 20010904//EN"
 "http://www.w3.org/TR/2001/REC-SVG-20010904/DTD/svg10.dtd">
<svg version="1.0" xmlns="http://www.w3.org/2000/svg"
 width="595.000000pt" height="283.000000pt" viewBox="0 0 595.000000 283.000000"
 preserveAspectRatio="xMidYMid meet">
<metadata>
Created by potrace 1.16, written by Peter Selinger 2001-2019
</metadata>
<g transform="translate(0.000000,283.000000) scale(0.100000,-0.100000)"
fill="#000000" stroke="none">
<path d="M4623 1699 c-41 -12 -73 -53 -73 -95 0 -48 39 -86 140 -137 100 -50
123 -78 122 -143 -1 -103 -121 -153 -217 -90 -29 19 -46 49 -56 96 -6 31 -7
29 -8 -20 -1 -51 1 -56 32 -77 55 -37 117 -47 179 -29 70 20 100 52 105 113 7
74 -21 107 -136 164 -52 25 -102 56 -113 68 -26 33 -23 84 6 118 21 24 32 28
74 28 60 0 95 -26 111 -84 l10 -36 -2 45 c-2 43 -4 46 -47 68 -47 23 -75 26
-127 11z"/>
<path d="M257 1693 c-4 -3 -7 -13 -7 -20 0 -12 4 -11 22 1 15 11 45 16 86 16
l63 0 -3 -245 -3 -245 25 0 25 0 -3 245 -3 245 63 0 c35 0 75 -6 89 -14 24
-12 26 -12 22 5 -5 18 -18 19 -187 19 -101 0 -186 -3 -189 -7z"/>
<path d="M725 1450 l0 -250 25 0 c25 0 25 0 22 85 l-3 85 141 0 141 0 -3 -85
c-3 -85 -3 -85 22 -85 25 0 25 0 22 85 l-3 85 84 0 85 0 -24 -66 c-14 -36 -29
-75 -35 -85 -8 -16 -6 -19 10 -19 13 0 18 5 15 18 -3 9 5 46 18 82 l23 65 114
0 113 0 24 -65 c13 -36 22 -73 20 -82 -3 -15 3 -18 32 -18 21 0 32 4 25 8 -6
4 -52 115 -101 247 -75 203 -92 240 -111 243 -14 2 -19 -1 -16 -10 3 -8 -19
-79 -48 -158 l-54 -145 -87 -3 -87 -3 3 161 3 160 -25 0 -25 0 3 -160 3 -160
-141 0 -141 0 3 160 3 160 -25 0 -25 0 0 -250z m709 69 c25 -70 46 -129 46
-133 0 -9 -200 -7 -200 2 -1 20 96 270 102 264 4 -4 27 -64 52 -133z"/>
<path d="M1698 1458 c2 -188 0 -243 -10 -250 -8 -5 3 -8 27 -8 24 0 35 3 27 8
-10 7 -12 62 -10 250 3 236 3 242 -17 242 -20 0 -20 -6 -17 -242z"/>
<path d="M1838 1693 c9 -3 12 -62 12 -243 0 -181 -3 -240 -12 -243 -7 -3 1 -6
17 -6 19 0 25 2 17 7 -9 7 -12 58 -10 223 l3 214 59 -95 c32 -52 95 -153 140
-225 l81 -130 3 245 c2 180 6 246 15 252 8 5 5 8 -8 8 -19 0 -20 -6 -17 -137
2 -76 2 -171 0 -212 l-3 -74 -129 211 c-116 190 -132 212 -155 211 -14 0 -20
-3 -13 -6z"/>
<path d="M2435 1690 c6 -10 -147 -431 -171 -467 -14 -22 -13 -23 13 -23 18 0
24 3 15 8 -10 7 -6 25 15 85 l27 77 112 0 112 0 27 -74 c15 -41 24 -79 20 -85
-4 -7 7 -11 32 -11 24 0 33 3 25 9 -7 4 -42 86 -78 182 -36 96 -76 204 -90
242 -20 51 -30 67 -45 67 -11 0 -18 -4 -14 -10z m69 -174 c25 -71 45 -131 43
-133 -3 -2 -49 -2 -104 -1 l-100 3 50 138 c27 76 53 134 57 130 4 -4 28 -66
54 -137z"/>
<path d="M3107 1692 c9 -5 -3 -68 -46 -238 -32 -127 -61 -236 -65 -242 -5 -8
1 -12 14 -12 12 0 19 4 16 9 -3 5 17 105 46 222 37 156 53 207 59 192 4 -12
31 -111 59 -220 29 -109 54 -200 56 -202 8 -9 14 9 53 184 23 99 47 203 53
230 l12 50 56 -225 c39 -153 53 -227 46 -232 -6 -4 7 -8 29 -8 22 0 35 4 29 8
-13 8 -124 426 -124 466 0 20 -5 26 -23 26 -22 0 -25 -11 -67 -200 -25 -110
-47 -200 -50 -200 -3 0 -16 39 -28 88 -81 307 -82 312 -111 312 -15 0 -21 -3
-14 -8z"/>
<path d="M3794 1691 c7 -10 -157 -456 -175 -477 -9 -11 -6 -14 17 -14 18 0 24
3 17 8 -10 6 -7 26 13 85 l26 77 113 0 112 0 27 -75 c15 -42 24 -80 21 -85 -4
-6 8 -10 26 -10 24 0 29 3 22 13 -6 6 -49 119 -98 250 -73 197 -91 237 -107
237 -11 0 -17 -4 -14 -9z m65 -168 c22 -59 42 -116 46 -125 7 -17 -2 -18 -100
-18 -98 0 -107 1 -100 18 3 9 27 73 52 141 33 88 48 119 54 108 5 -8 26 -64
48 -124z"/>
<path d="M4118 1693 c9 -3 12 -62 12 -243 0 -181 -3 -240 -12 -243 -7 -3 1 -6
17 -6 19 0 25 2 17 7 -9 7 -12 58 -10 223 l3 214 129 -210 c71 -115 135 -217
142 -225 12 -12 14 24 14 232 0 188 3 248 13 251 6 3 -1 6 -18 6 -19 0 -25 -2
-17 -7 9 -7 12 -56 10 -213 l-3 -204 -129 213 c-116 189 -133 212 -155 211
-15 0 -20 -3 -13 -6z"/>
<path d="M4928 1693 c9 -3 12 -51 12 -191 0 -206 7 -235 63 -276 39 -29 125
-29 163 0 66 49 69 57 74 275 l5 199 -25 -1 c-14 0 -19 -3 -12 -6 18 -7 17
-352 -2 -396 -19 -47 -49 -69 -100 -74 -56 -7 -91 13 -113 65 -23 52 -32 390
-12 403 9 6 0 8 -26 8 -22 0 -34 -3 -27 -6z"/>
<path d="M5318 1693 c9 -3 12 -62 12 -243 0 -181 -3 -240 -12 -243 -7 -3 5 -5
27 -5 22 0 34 2 28 5 -10 3 -13 46 -13 166 l0 161 46 -44 c86 -85 239 -262
238 -276 -1 -9 9 -14 29 -14 l30 0 -19 23 c-11 12 -50 56 -87 98 l-67 76 37
24 c51 33 74 69 80 120 5 55 -19 105 -66 136 -31 21 -45 23 -155 22 -67 0
-115 -3 -108 -6z m229 -23 c41 -25 63 -68 63 -124 0 -39 -6 -52 -36 -86 -20
-22 -44 -40 -54 -40 -9 0 -49 36 -89 79 -70 78 -71 80 -71 135 l0 56 78 0 c59
0 85 -5 109 -20z"/>
<path d="M2858 991 c-28 -27 -38 -46 -38 -69 0 -42 30 -72 73 -72 38 0 62 21
72 63 6 23 2 33 -29 62 -21 19 -34 39 -31 45 14 22 -12 7 -47 -29z m72 -31
c32 -32 25 -66 -17 -89 -43 -22 -92 25 -74 72 16 41 59 49 91 17z"/>
<path d="M2532 988 c-20 -20 -14 -42 19 -71 26 -22 29 -30 19 -42 -9 -11 -17
-12 -30 -5 -27 14 -34 12 -20 -5 18 -21 57 -19 70 5 8 15 5 25 -20 53 -38 44
-39 61 -3 52 23 -5 25 -4 14 9 -16 19 -33 20 -49 4z"/>
<path d="M2703 990 c-44 -18 -57 -86 -23 -120 24 -24 78 -26 106 -4 18 15 18
15 -6 9 -63 -18 -100 -1 -100 45 0 52 41 70 105 45 18 -7 18 -6 5 8 -20 21
-59 28 -87 17z"/>
<path d="M3105 977 c-55 -47 -26 -127 46 -127 62 0 95 78 51 122 -30 30 -66
32 -97 5z m77 -9 c30 -24 31 -56 4 -83 -30 -30 -36 -31 -70 -4 -31 24 -33 52
-6 79 23 23 49 26 72 8z"/>
<path d="M3269 971 c-25 -25 -30 -37 -25 -59 19 -78 123 -84 149 -9 5 14 0 17
-29 17 -21 0 -33 -4 -29 -10 3 -5 13 -10 21 -10 24 0 16 -20 -12 -31 -29 -10
-70 8 -81 37 -17 44 43 88 87 64 12 -6 24 -9 28 -6 10 10 -12 25 -45 32 -27 5
-37 1 -64 -25z"/>
<path d="M2410 921 c0 -41 4 -71 10 -71 6 0 10 13 10 30 0 25 5 31 33 38 27 7
32 13 32 38 0 27 -3 29 -42 32 l-43 3 0 -70z m59 50 c19 -12 6 -41 -19 -41
-15 0 -20 7 -20 25 0 26 14 31 39 16z"/>
<path d="M2620 920 c0 -40 4 -70 10 -70 6 0 10 30 10 70 0 40 -4 70 -10 70 -6
0 -10 -30 -10 -70z"/>
<path d="M2990 920 l0 -70 35 0 c19 0 35 5 35 10 0 6 -11 10 -25 10 -24 0 -25
3 -25 60 0 33 -4 60 -10 60 -6 0 -10 -30 -10 -70z"/>
<path d="M3439 925 c-32 -71 -33 -75 -21 -75 5 0 14 11 20 25 8 17 20 25 37
25 17 0 29 -8 37 -25 9 -21 28 -35 28 -21 0 11 -60 136 -65 136 -4 0 -19 -29
-36 -65z m51 -1 c0 -8 -7 -14 -15 -14 -15 0 -21 21 -9 33 10 9 24 -2 24 -19z"/>
</g>
</svg>
